<mxfile host="Electron" modified="2024-05-30T17:09:58.095Z" agent="Mozilla/5.0 (Windows NT 10.0; Win64; x64) AppleWebKit/537.36 (KHTML, like Gecko) draw.io/24.2.5 Chrome/120.0.6099.109 Electron/28.1.0 Safari/537.36" etag="41B4tRrzFkkDf8rRSENW" version="24.2.5" type="device">
  <diagram name="Página-1" id="IzPFOAUjtH0DD-5wN5hG">
    <mxGraphModel dx="1468" dy="619" grid="0" gridSize="10" guides="0" tooltips="1" connect="1" arrows="1" fold="1" page="0" pageScale="1" pageWidth="827" pageHeight="1169" math="0" shadow="0">
      <root>
        <mxCell id="0" />
        <mxCell id="1" parent="0" />
        <mxCell id="r3g47d2LkCAe8KUsaleR-4" value="" style="rounded=1;whiteSpace=wrap;html=1;arcSize=8;" parent="1" vertex="1">
          <mxGeometry x="-147" y="330" width="306" height="322" as="geometry" />
        </mxCell>
        <mxCell id="r3g47d2LkCAe8KUsaleR-9" value="" style="shape=image;verticalLabelPosition=bottom;labelBackgroundColor=default;verticalAlign=top;aspect=fixed;imageAspect=0;image=data:image/png,iVBORw0KGgoAAAANSUhEUgAAAOEAAADhCAMAAAAJbSJIAAAAflBMVEX///9fyfhax/gxufYHW50EWZwDWJxPxfjz+/4IXJ5hhrSi3ftVxvjd5e4AVJrX8P3n9v5HvveG0/nN7P0AT5jf8/140PkATJcARpTS7v245fvE6Py2xtro9v4tqucMs/UARJNOrOAIO4uW2fotu/au3/oGOYnC4PNSfK7v8/fVukePAAADUklEQVR4nO3c21LbMBSFYSuxJVJSUVqDTaEmoS1t3/8F6wNxEluytzvTyd6b9Q+XXPibJaIhHJIEIYQQQgghhBBCCCGEEEIIIYQQQggp6eZ6Qd+vLv24y3twW2rOuZtLP+7yHpwJtQqmCBgWagIGhaqAIaFE4E0UGBAqA46F2oAjoTrgUKgPaOQD46+iAaFGoFEPNOqBRj3QqAca9UCjHmgAZBsRaNQDjXqgUQ806oEGQI4BCCDzvgAIIO8ABJB5AALIPADfE9C4u0s/7vKWAdUvqB6II8ovLAgg8wAEkHkAAsg8AAFkHoAAMg9AAJkHIIDMAxDAuqtFCQTeO3q395yBnyLA7egv8aK5zwAC+L+AK4nAO+3AJPlK/7V0mUA6USyQShQMpBFFAylE4cB5onjgHFEBcJqoAjhFVAKME9UAY8SV+xb+dHnAMDG64K2L/BMoxsAQMQ5cr7dUIh/gmBg9ojWQTOQEHBKnFiQTeQHPiXNAEpEb8JQ4fUSJRH7AI3F+wZYoD3gg0oAzRJ7Ajkg5ol1OHrAhUhecJPIFNkQ6MErkDEySyA9OgsAIkTcwUgQYJOoCBojagCOiPuCAKBK4mgaeEUUC72cmPCXKBG7nhQeiUKAhCDuiUOBqRRE2RLFAmnDtRAJN+w0STbiWCEweHV1Y+Y+Xftx/qSWShFWW5WKJFGGVpRu5RIKwsulmI5c4L+yAcok/qECxxJ/PM0CfHYRSideTxMrb7EBMU6uP2ADfiGmTOmKVe9sSsw6YpsoOag30B2KqkVgV3rdEq5RYlXneEX1r7ImFEmIDjBBlrji8F6uyyHui9z2vfUWVueI5sdoVnbA1nvnqr0mhxMfj+4Zm/1IUb0Rv03QArIkyD2pPrIFl0Zb7/iY88Ylf0exfy7KoP4a8I1A2sVmw5uXZZug7AUo+qO2CuR3zznySV9y/BnkjoFjir5c0xBv75BKfdjSg4HvxqSQNKHrFctYn/V48J0YHVEKc2E8FMbSaknvxqczmzqcCImXABmh1EUNAscQdYcAOKJY4v6LtU0q0VjyxP6gTB9R2b6hKJZY25hsABRMjvhEwy7xQ4s6Ty3cyiR8W9PvPpR8XIYQQQgghhBBCCCGEEEIIIYQQQui99xd9MndVczNj5wAAAABJRU5ErkJggg==;" parent="1" vertex="1">
          <mxGeometry x="-130" y="336" width="45" height="45" as="geometry" />
        </mxCell>
        <mxCell id="EiofpvdJaR4-_CZEexgb-22" style="edgeStyle=orthogonalEdgeStyle;rounded=0;orthogonalLoop=1;jettySize=auto;html=1;" edge="1" parent="1" source="EiofpvdJaR4-_CZEexgb-1">
          <mxGeometry relative="1" as="geometry">
            <mxPoint x="300.39863506116376" y="474.9999999999999" as="targetPoint" />
          </mxGeometry>
        </mxCell>
        <mxCell id="EiofpvdJaR4-_CZEexgb-1" value="" style="aspect=fixed;sketch=0;html=1;dashed=0;whitespace=wrap;fillColor=#2875E2;strokeColor=#ffffff;points=[[0.005,0.63,0],[0.1,0.2,0],[0.9,0.2,0],[0.5,0,0],[0.995,0.63,0],[0.72,0.99,0],[0.5,1,0],[0.28,0.99,0]];shape=mxgraph.kubernetes.icon2;kubernetesLabel=1;prIcon=api" vertex="1" parent="1">
          <mxGeometry x="214" y="451" width="50" height="48" as="geometry" />
        </mxCell>
        <mxCell id="EiofpvdJaR4-_CZEexgb-14" style="edgeStyle=orthogonalEdgeStyle;rounded=0;orthogonalLoop=1;jettySize=auto;html=1;" edge="1" parent="1" source="EiofpvdJaR4-_CZEexgb-2" target="EiofpvdJaR4-_CZEexgb-3">
          <mxGeometry relative="1" as="geometry" />
        </mxCell>
        <mxCell id="EiofpvdJaR4-_CZEexgb-2" value="Pantalla Login" style="rounded=1;whiteSpace=wrap;html=1;arcSize=0;fillColor=#f5f5f5;fontColor=#333333;strokeColor=#666666;" vertex="1" parent="1">
          <mxGeometry x="-127" y="564" width="120" height="60" as="geometry" />
        </mxCell>
        <mxCell id="EiofpvdJaR4-_CZEexgb-3" value="Pantalla Tareas" style="rounded=1;whiteSpace=wrap;html=1;arcSize=0;fillColor=#f5f5f5;fontColor=#333333;strokeColor=#666666;" vertex="1" parent="1">
          <mxGeometry x="23" y="564" width="120" height="60" as="geometry" />
        </mxCell>
        <mxCell id="EiofpvdJaR4-_CZEexgb-8" style="edgeStyle=orthogonalEdgeStyle;rounded=0;orthogonalLoop=1;jettySize=auto;html=1;entryX=0.5;entryY=0;entryDx=0;entryDy=0;" edge="1" parent="1" source="EiofpvdJaR4-_CZEexgb-5" target="EiofpvdJaR4-_CZEexgb-2">
          <mxGeometry relative="1" as="geometry" />
        </mxCell>
        <mxCell id="EiofpvdJaR4-_CZEexgb-5" value="main" style="rounded=1;whiteSpace=wrap;html=1;arcSize=50;fillColor=#f5f5f5;fontColor=#333333;strokeColor=#666666;" vertex="1" parent="1">
          <mxGeometry x="-119" y="408" width="103" height="27" as="geometry" />
        </mxCell>
        <mxCell id="EiofpvdJaR4-_CZEexgb-7" value="" style="endArrow=none;dashed=1;html=1;dashPattern=1 3;strokeWidth=2;rounded=0;entryX=1.003;entryY=0.645;entryDx=0;entryDy=0;entryPerimeter=0;exitX=0.006;exitY=0.651;exitDx=0;exitDy=0;exitPerimeter=0;" edge="1" parent="1" source="r3g47d2LkCAe8KUsaleR-4" target="r3g47d2LkCAe8KUsaleR-4">
          <mxGeometry width="50" height="50" relative="1" as="geometry">
            <mxPoint x="-133" y="539" as="sourcePoint" />
            <mxPoint x="-83" y="489" as="targetPoint" />
          </mxGeometry>
        </mxCell>
        <mxCell id="EiofpvdJaR4-_CZEexgb-10" value="Método / Clase" style="rounded=1;whiteSpace=wrap;html=1;arcSize=50;fillColor=#f5f5f5;fontColor=#333333;strokeColor=#666666;" vertex="1" parent="1">
          <mxGeometry x="-52" y="681" width="103" height="27" as="geometry" />
        </mxCell>
        <mxCell id="EiofpvdJaR4-_CZEexgb-11" value="Pantalla&amp;nbsp;" style="rounded=1;whiteSpace=wrap;html=1;arcSize=12;fillColor=#f5f5f5;fontColor=#333333;strokeColor=#666666;" vertex="1" parent="1">
          <mxGeometry x="-150" y="684" width="90" height="24" as="geometry" />
        </mxCell>
        <mxCell id="EiofpvdJaR4-_CZEexgb-12" value="Widget" style="rhombus;whiteSpace=wrap;html=1;fillColor=#f5f5f5;fontColor=#333333;strokeColor=#666666;" vertex="1" parent="1">
          <mxGeometry x="66" y="668" width="64" height="58" as="geometry" />
        </mxCell>
        <mxCell id="EiofpvdJaR4-_CZEexgb-13" value="miScaffold" style="rhombus;whiteSpace=wrap;html=1;fillColor=#f5f5f5;fontColor=#333333;strokeColor=#666666;" vertex="1" parent="1">
          <mxGeometry x="-44" y="499" width="69" height="60" as="geometry" />
        </mxCell>
        <mxCell id="EiofpvdJaR4-_CZEexgb-15" value="LoginScreen" style="rhombus;whiteSpace=wrap;html=1;fillColor=#f5f5f5;fontColor=#333333;strokeColor=#666666;" vertex="1" parent="1">
          <mxGeometry x="-144" y="471" width="69" height="60" as="geometry" />
        </mxCell>
        <mxCell id="EiofpvdJaR4-_CZEexgb-24" style="edgeStyle=orthogonalEdgeStyle;rounded=0;orthogonalLoop=1;jettySize=auto;html=1;entryX=0;entryY=0.5;entryDx=0;entryDy=0;" edge="1" parent="1" source="EiofpvdJaR4-_CZEexgb-16" target="EiofpvdJaR4-_CZEexgb-18">
          <mxGeometry relative="1" as="geometry" />
        </mxCell>
        <mxCell id="EiofpvdJaR4-_CZEexgb-16" value="TareaScreen" style="rhombus;whiteSpace=wrap;html=1;fillColor=#f5f5f5;fontColor=#333333;strokeColor=#666666;" vertex="1" parent="1">
          <mxGeometry x="-8" y="461" width="81" height="60" as="geometry" />
        </mxCell>
        <mxCell id="EiofpvdJaR4-_CZEexgb-17" value="TareaRegistre" style="rhombus;whiteSpace=wrap;html=1;fillColor=#f5f5f5;fontColor=#333333;strokeColor=#666666;" vertex="1" parent="1">
          <mxGeometry x="75" y="461" width="81" height="60" as="geometry" />
        </mxCell>
        <mxCell id="EiofpvdJaR4-_CZEexgb-25" style="edgeStyle=orthogonalEdgeStyle;rounded=0;orthogonalLoop=1;jettySize=auto;html=1;entryX=0.5;entryY=0;entryDx=0;entryDy=0;" edge="1" parent="1" source="EiofpvdJaR4-_CZEexgb-18" target="EiofpvdJaR4-_CZEexgb-19">
          <mxGeometry relative="1" as="geometry">
            <Array as="points">
              <mxPoint x="67" y="415" />
              <mxPoint x="90" y="415" />
            </Array>
          </mxGeometry>
        </mxCell>
        <mxCell id="EiofpvdJaR4-_CZEexgb-18" value="controllerTarea" style="rounded=1;whiteSpace=wrap;html=1;arcSize=50;fillColor=#f5f5f5;fontColor=#333333;strokeColor=#666666;" vertex="1" parent="1">
          <mxGeometry x="14" y="350" width="103" height="27" as="geometry" />
        </mxCell>
        <mxCell id="EiofpvdJaR4-_CZEexgb-19" value="tareaService" style="rounded=1;whiteSpace=wrap;html=1;arcSize=50;fillColor=#f5f5f5;fontColor=#333333;strokeColor=#666666;" vertex="1" parent="1">
          <mxGeometry x="39" y="422" width="103" height="27" as="geometry" />
        </mxCell>
        <mxCell id="EiofpvdJaR4-_CZEexgb-20" style="edgeStyle=orthogonalEdgeStyle;rounded=0;orthogonalLoop=1;jettySize=auto;html=1;entryX=0.005;entryY=0.63;entryDx=0;entryDy=0;entryPerimeter=0;" edge="1" parent="1" source="EiofpvdJaR4-_CZEexgb-19" target="EiofpvdJaR4-_CZEexgb-1">
          <mxGeometry relative="1" as="geometry" />
        </mxCell>
        <mxCell id="EiofpvdJaR4-_CZEexgb-21" value="API REST" style="text;html=1;align=center;verticalAlign=middle;whiteSpace=wrap;rounded=0;" vertex="1" parent="1">
          <mxGeometry x="209" y="502" width="60" height="30" as="geometry" />
        </mxCell>
        <mxCell id="EiofpvdJaR4-_CZEexgb-23" value="BACKEND" style="text;html=1;align=center;verticalAlign=middle;whiteSpace=wrap;rounded=0;" vertex="1" parent="1">
          <mxGeometry x="307" y="461" width="60" height="30" as="geometry" />
        </mxCell>
        <mxCell id="EiofpvdJaR4-_CZEexgb-26" value="seguimiento_tareas" style="text;html=1;align=center;verticalAlign=middle;whiteSpace=wrap;rounded=0;" vertex="1" parent="1">
          <mxGeometry x="-33" y="302" width="60" height="30" as="geometry" />
        </mxCell>
        <mxCell id="EiofpvdJaR4-_CZEexgb-27" value="&lt;u&gt;Leyenda&lt;/u&gt;" style="text;html=1;align=center;verticalAlign=middle;whiteSpace=wrap;rounded=0;" vertex="1" parent="1">
          <mxGeometry x="-147" y="653" width="60" height="30" as="geometry" />
        </mxCell>
      </root>
    </mxGraphModel>
  </diagram>
</mxfile>
